HIERARCHY
ROOT Hips
{
 OFFSET 0.000000 0.000000 0.000000
 CHANNELS 6 Xposition Yposition Zposition Yrotation Xrotation Zrotation
 JOINT Chest
 {
  OFFSET 0.000000 9.585900 0.002600
  CHANNELS 3 Yrotation Xrotation Zrotation
  JOINT Chest2
  {
   OFFSET 0.000000 9.601200 -0.005300
   CHANNELS 3 Yrotation Xrotation Zrotation
   JOINT Chest3
   {
    OFFSET 0.000000 9.561800 0.000000
    CHANNELS 3 Yrotation Xrotation Zrotation
    JOINT Chest4
    {
     OFFSET 0.000000 9.552100 0.000000
     CHANNELS 3 Yrotation Xrotation Zrotation
     JOINT Neck
     {
      OFFSET 0.000000 14.453000 0.000000
      CHANNELS 3 Yrotation Xrotation Zrotation
      JOINT Head
      {
       OFFSET 0.000000 8.936500 -0.011300
       CHANNELS 3 Yrotation Xrotation Zrotation
       End Site
       {
        OFFSET 0.000000 17.073600 -0.006000
       }
      }
     }
     JOINT RightCollar
     {
      OFFSET -2.921100 9.558500 0.000000
      CHANNELS 3 Yrotation Xrotation Zrotation
      JOINT RightShoulder
      {
       OFFSET -13.519700 0.000000 0.000000
       CHANNELS 3 Yrotation Xrotation Zrotation
       JOINT RightElbow
       {
        OFFSET 0.000000 -29.696600 0.000000
        CHANNELS 3 Yrotation Xrotation Zrotation
        JOINT RightWrist
        {
         OFFSET 0.000000 -24.004700 0.000000
         CHANNELS 3 Yrotation Xrotation Zrotation
         End Site
         {
          OFFSET 0.000000 -17.728500 0.000000
         }
        }
       }
      }
     }
     JOINT LeftCollar
     {
      OFFSET 2.921100 9.558500 0.000000
      CHANNELS 3 Yrotation Xrotation Zrotation
      JOINT LeftShoulder
      {
       OFFSET 13.519700 0.000000 0.000000
       CHANNELS 3 Yrotation Xrotation Zrotation
       JOINT LeftElbow
       {
        OFFSET 0.000000 -29.696600 0.000000
        CHANNELS 3 Yrotation Xrotation Zrotation
        JOINT LeftWrist
        {
         OFFSET 0.000000 -24.004700 0.000000
         CHANNELS 3 Yrotation Xrotation Zrotation
         End Site
         {
          OFFSET 0.000000 -17.728500 0.000000
         }
        }
       }
      }
     }
    }
   }
  }
 }
 JOINT RightHip
 {
  OFFSET -7.771700 -0.012900 -0.001300
  CHANNELS 3 Yrotation Xrotation Zrotation
  JOINT RightKnee
  {
   OFFSET 0.000000 -40.869800 0.001200
   CHANNELS 3 Yrotation Xrotation Zrotation
   JOINT RightAnkle
   {
    OFFSET 0.000000 -39.717900 0.002100
    CHANNELS 3 Yrotation Xrotation Zrotation
    JOINT RightToe
    {
     OFFSET 0.000000 -4.965400 11.033500
     CHANNELS 3 Yrotation Xrotation Zrotation
     End Site
     {
      OFFSET 0.000000 -1.423100 5.872300
     }
    }
   }
  }
 }
 JOINT LeftHip
 {
  OFFSET 7.771700 -0.012900 -0.001300
  CHANNELS 3 Yrotation Xrotation Zrotation
  JOINT LeftKnee
  {
   OFFSET 0.000000 -40.869800 0.001200
   CHANNELS 3 Yrotation Xrotation Zrotation
   JOINT LeftAnkle
   {
    OFFSET 0.000000 -39.717900 0.002100
    CHANNELS 3 Yrotation Xrotation Zrotation
    JOINT LeftToe
    {
     OFFSET 0.000000 -4.965400 11.033500
     CHANNELS 3 Yrotation Xrotation Zrotation
     End Site
     {
      OFFSET 0.000000 -1.423100 5.872300
     }
    }
   }
  }
 }
}
MOTION
Frames: 9
Frame Time: 0.008333
-235.756357 57.705853 22.182277 172.991832 -50.717797 -2.704138 4.621218 22.728065 4.353455 2.363837 13.037560 2.200136 3.061799 16.275266 2.857873 2.368670 13.033018 2.201693 -1.295035 16.347299 -0.075641 -2.408765 -5.432224 0.319626 1.100308 3.110130 0.243997 1.513685 -17.339075 -11.393781 -60.177111 -60.437882 108.803543 14.787533 31.067903 -7.943862 -11.257060 0.979746 -0.116036 4.383816 -7.945730 16.410432 70.761883 -64.007122 -117.131615 -11.361159 4.465321 -6.225596 7.092971 -21.370018 0.246028 -42.202672 72.112759 -45.480619 4.301261 -13.130242 12.499818 0.007180 -0.009046 0.011038 -9.066386 -18.616773 9.540262 55.132718 81.594990 57.412110 0.274353 -18.247550 -22.983049 -0.007446 -0.003498 -0.017193
-235.756178 57.705310 22.182978 172.982275 -50.709117 -2.693541 4.620382 22.723841 4.346038 2.364331 13.038966 2.195056 3.061164 16.275115 2.853900 2.368226 13.032828 2.198546 -1.296093 16.339647 -0.066339 -2.415995 -5.440541 0.331914 1.135030 3.082748 0.217630 1.492811 -17.319362 -11.372507 -60.234120 -60.523067 108.812303 14.784909 31.105254 -7.947169 -11.257436 0.971179 -0.117226 4.384760 -7.936987 16.407456 70.635013 -63.953378 -117.049322 -11.262016 4.454819 -6.204609 7.100373 -21.380032 0.244755 -42.212732 72.113106 -45.492514 4.302390 -13.131610 12.500472 0.011317 -0.008535 0.010839 -9.065610 -18.624905 9.538609 55.115114 81.595837 57.390580 0.284834 -18.243904 -22.982623 -0.009304 -0.001167 -0.014276
-235.755978 57.705463 22.183135 172.979527 -50.706387 -2.688800 4.617587 22.727131 4.338810 2.365921 13.039781 2.190110 3.061007 16.274758 2.850590 2.368143 13.032532 2.195930 -1.300798 16.333251 -0.057369 -2.424916 -5.454783 0.346804 1.151026 3.068855 0.208453 1.495359 -17.311366 -11.363343 -60.285980 -60.592880 108.829295 14.752997 31.118297 -7.950297 -11.255006 0.964396 -0.111665 4.385440 -7.931906 16.405922 70.518033 -63.889955 -116.976260 -11.162663 4.445182 -6.190207 7.101694 -21.384104 0.245507 -42.213265 72.111341 -45.500485 4.302184 -13.127916 12.506145 0.009198 -0.009224 0.008860 -9.066257 -18.627594 9.537470 55.101984 81.599129 57.373939 0.285566 -18.243348 -22.976840 -0.007659 -0.002509 -0.017332
-235.755181 57.705006 22.183859 172.976411 -50.699573 -2.688880 4.618243 22.727011 4.334239 2.369873 13.039052 2.188240 3.061002 16.272703 2.849803 2.367699 13.033091 2.190860 -1.312635 16.327068 -0.053066 -2.423524 -5.468549 0.361419 1.161513 3.056151 0.202736 1.525163 -17.302810 -11.372718 -60.365129 -60.654119 108.857100 14.770875 31.142877 -7.988153 -11.255936 0.958580 -0.105243 4.386880 -7.925710 16.404399 70.404757 -63.828499 -116.904043 -11.058095 4.431676 -6.178813 7.101516 -21.394461 0.249642 -42.236484 72.108391 -45.524981 4.312377 -13.127698 12.505305 0.009504 -0.009570 0.008339 -9.068621 -18.634250 9.541714 55.112680 81.600110 57.383864 0.284716 -18.244405 -22.976416 -0.008080 -0.002050 -0.016052
-235.755001 57.704286 22.184630 172.981500 -50.690882 -2.693040 4.620407 22.729925 4.327820 2.368429 13.032835 2.189891 3.061345 16.267776 2.853310 2.366501 13.036109 2.181108 -1.309498 16.322332 -0.041837 -2.437576 -5.485680 0.373171 1.167158 3.047904 0.206575 1.547464 -17.297613 -11.384589 -60.440875 -60.723921 108.892023 14.786482 31.149726 -8.023148 -11.264124 0.950877 -0.108910 4.387828 -7.914756 16.405020 70.288615 -63.773998 -116.821909 -10.954764 4.412527 -6.167051 7.097282 -21.405459 0.250604 -42.248562 72.108433 -45.536878 4.301646 -13.125089 12.506717 0.007841 -0.009047 0.006600 -9.078022 -18.642400 9.545608 55.117914 81.600827 57.384043 0.294652 -18.245063 -22.980819 -0.006330 0.001652 -0.010185
-235.755802 57.702964 22.185672 172.978590 -50.677756 -2.686898 4.620316 22.724796 4.319076 2.369143 13.031904 2.187313 3.063474 16.265147 2.849356 2.368050 13.033335 2.185197 -1.315598 16.315992 -0.041989 -2.442094 -5.494968 0.384659 1.172370 3.042565 0.204734 1.567649 -17.291955 -11.396430 -60.529069 -60.797116 108.937243 14.786091 31.140962 -8.042698 -11.272431 0.945002 -0.117637 4.394842 -7.906663 16.391135 70.215578 -63.764997 -116.767336 -10.813220 4.388512 -6.169468 7.100194 -21.418887 0.245112 -42.267477 72.102810 -45.551858 4.299742 -13.128042 12.502990 0.001304 -0.002802 0.006838 -9.077911 -18.654507 9.541710 55.118977 81.597541 57.382680 0.296284 -18.246858 -22.980533 -0.008899 0.004308 -0.008887
-235.756054 57.703076 22.185580 172.975583 -50.675142 -2.684731 4.620459 22.732518 4.312444 2.369635 13.029380 2.185068 3.068695 16.262500 2.848238 2.369824 13.029764 2.188019 -1.321563 16.310418 -0.041301 -2.451127 -5.509114 0.398217 1.188541 3.039713 0.181776 1.557369 -17.290570 -11.377262 -60.609486 -60.876424 108.985311 14.791143 31.117456 -8.058892 -11.288040 0.941406 -0.123554 4.409147 -7.904436 16.397857 70.146994 -63.728544 -116.717912 -10.686953 4.350254 -6.166606 7.105204 -21.425007 0.245812 -42.284105 72.106501 -45.564786 4.304219 -13.132058 12.499025 0.001518 -0.002590 0.007917 -9.076231 -18.655949 9.541042 55.121693 81.596987 57.384707 0.297574 -18.248542 -22.980313 -0.011107 0.005109 -0.008280
-235.756588 57.702359 22.186120 172.973551 -50.665322 -2.683779 4.619576 22.726806 4.308610 2.367414 13.031206 2.180743 3.070561 16.264620 2.843809 2.356167 13.037813 2.171522 -1.322431 16.292855 -0.028650 -2.445399 -5.528321 0.413772 1.223161 3.026520 0.184311 1.552322 -17.291164 -11.369722 -60.698549 -60.957325 109.040262 14.804110 31.078508 -8.063374 -11.276657 0.925900 -0.117095 4.418036 -7.899353 16.393503 69.956191 -63.599681 -116.584162 -10.698282 4.308137 -6.128048 7.108061 -21.440051 0.246235 -42.294160 72.111852 -45.574332 4.304970 -13.132391 12.497417 0.010666 -0.005251 0.008321 -9.076636 -18.664847 9.542154 55.121134 81.598531 57.383082 0.295990 -18.253095 -22.979408 -0.009562 0.006764 -0.006975
-235.757387 57.701648 22.186692 172.959440 -50.654445 -2.673548 4.624671 22.719494 4.304004 2.369290 13.029326 2.181166 3.061700 16.270830 2.832078 2.359674 13.040640 2.169080 -1.316533 16.282236 -0.019715 -2.456377 -5.545119 0.426195 1.250758 3.018322 0.170273 1.547019 -17.288115 -11.363388 -60.816620 -61.040897 109.113981 14.825486 31.031057 -8.049442 -11.273368 0.912140 -0.121139 4.436867 -7.888632 16.369966 69.836947 -63.547973 -116.501357 -10.662821 4.256875 -6.106699 7.116883 -21.453572 0.245658 -42.294598 72.115711 -45.575514 4.308467 -13.134896 12.495850 0.010674 -0.005086 0.008764 -9.069110 -18.674735 9.543335 55.122721 81.600702 57.383635 0.300211 -18.255821 -22.979773 -0.009142 0.006999 -0.005553
